<?xml version="1.0" encoding="UTF-8"?>
<svg version="1.1" xmlns="http://www.w3.org/2000/svg" width="566" height="553">
<path d="M0 0 C1.11819721 0.7757409 2.2380931 1.54903704 3.359375 2.3203125 C13.7241676 9.50338129 23.63568319 17.28965462 32.39453125 26.39453125 C34.18303851 28.18303851 36.0707646 29.80224333 38 31.4375 C41.3750795 34.35263584 44.29129586 37.45671903 47.16796875 40.859375 C49.13359951 43.15610348 51.18886063 45.35125989 53.25 47.5625 C59.03403056 53.9935577 64.05569388 60.91518166 69 68 C69.44069824 68.62696777 69.88139648 69.25393555 70.33544922 69.89990234 C109.88288682 126.75026036 124.19046327 197.9825409 112.49609375 265.92773438 C106.06285556 301.31054441 92.25206553 337.79444516 71 367 C70.23584501 368.10639423 69.47427276 369.21457528 68.71484375 370.32421875 C57.80296254 386.1352672 44.73384666 402.06258297 29.9296875 414.37890625 C27.69022201 416.2602386 25.57623953 418.25501182 23.4375 420.25 C17.0064423 426.03403056 10.08481834 431.05569388 3 436 C2.37303223 436.44069824 1.74606445 436.88139648 1.10009766 437.33544922 C-55.75026036 476.88288682 -126.9825409 491.19046327 -194.92773438 479.49609375 C-230.31054441 473.06285556 -266.79444516 459.25206553 -296 438 C-297.10639423 437.23584501 -298.21457528 436.47427276 -299.32421875 435.71484375 C-315.1352672 424.80296254 -331.06258297 411.73384666 -343.37890625 396.9296875 C-345.2602386 394.69022201 -347.25501182 392.57623953 -349.25 390.4375 C-355.03403056 384.0064423 -360.05569388 377.08481834 -365 370 C-365.66104736 369.05954834 -365.66104736 369.05954834 -366.33544922 368.10009766 C-405.88288682 311.24973964 -420.19046327 240.0174591 -408.49609375 172.07226562 C-402.0639526 136.69548929 -388.25702273 100.19639267 -367 71 C-366.2242591 69.88180279 -365.45096296 68.7619069 -364.6796875 67.640625 C-357.49661871 57.2758324 -349.71034538 47.36431681 -340.60546875 38.60546875 C-338.81696149 36.81696149 -337.19775667 34.9292354 -335.5625 33 C-332.64736416 29.6249205 -329.54328097 26.70870414 -326.140625 23.83203125 C-323.84389652 21.86640049 -321.64874011 19.81113937 -319.4375 17.75 C-313.0064423 11.96596944 -306.08481834 6.94430612 -299 2 C-298.37303223 1.55930176 -297.74606445 1.11860352 -297.10009766 0.66455078 C-216.25128792 -55.5771928 -110.67557989 -59.11480808 0 0 Z M-317 34 C-318.42964416 35.2589773 -319.86633393 36.51003631 -321.3125 37.75 C-367.55789113 77.97584642 -394.21999819 141.66626988 -398.55615234 201.80859375 C-398.76571019 205.20514475 -398.89126156 208.59852552 -399 212 C-399.04125 213.15628906 -399.0825 214.31257812 -399.125 215.50390625 C-400.23083569 277.36158993 -377.44192888 340.11055214 -335.27734375 385.5390625 C-333.24097846 387.73959446 -331.26738147 389.97728703 -329.3125 392.25 C-289.00492646 438.49069769 -225.75340323 464.89791266 -165.60009766 469.55615234 C-162.40165604 469.76885464 -159.20355589 469.89332592 -156 470 C-154.79214844 470.04125 -153.58429688 470.0825 -152.33984375 470.125 C-90.09627701 471.15488321 -27.23567835 448.76328357 18.5390625 406.27734375 C20.73959446 404.24097846 22.97728703 402.26738147 25.25 400.3125 C71.49069769 360.00492646 97.89791266 296.75340323 102.55615234 236.60009766 C102.76885464 233.40165604 102.89332592 230.20355589 103 227 C103.04125 225.79214844 103.0825 224.58429688 103.125 223.33984375 C104.17227126 160.04538701 80.86439285 95.93954357 37 50 C35.7410227 48.57035584 34.48996369 47.13366607 33.25 45.6875 C-6.96621364 -0.54681687 -70.34274403 -26.90535826 -130.39990234 -31.55615234 C-133.59834396 -31.76885464 -136.79644411 -31.89332592 -140 -32 C-141.20785156 -32.04125 -142.41570312 -32.0825 -143.66015625 -32.125 C-206.95461299 -33.17227126 -271.06045643 -9.86439285 -317 34 Z " fill="#9022CB" transform="translate(429,61)"/>
<path d="M0 0 C18.48 0 36.96 0 56 0 C59.89471612 11.68414836 63.72719469 23.36487033 67.375 35.125 C67.82926207 36.58468678 68.2836888 38.04432233 68.73828125 39.50390625 C69.82740256 43.00202095 70.91435396 46.50080495 72 50 C73.0668735 45.6117645 74.13290361 41.22332512 75.19824219 36.8347168 C75.55870274 35.3502892 75.91937078 33.86591197 76.28027344 32.3815918 C76.8072252 30.2141715 77.33335984 28.04655402 77.859375 25.87890625 C78.01372009 25.24481339 78.16806519 24.61072052 78.3270874 23.95741272 C80.2607809 15.98138384 82.12011727 7.9895016 84 0 C99.84 0 115.68 0 132 0 C131.32901577 5.36787384 130.5607365 10.4380862 129.34179688 15.66943359 C129.17744644 16.38915344 129.01309601 17.10887329 128.84376526 17.85040283 C128.305992 20.20066186 127.76253214 22.54956213 127.21875 24.8984375 C126.84115684 26.54124772 126.46384192 28.1841219 126.08679199 29.82705688 C125.29913039 33.25524034 124.50875629 36.68278308 123.71630859 40.10986328 C122.69963999 44.50721813 121.68882848 48.905894 120.67989349 53.30502892 C119.90292978 56.69057372 119.12340111 60.07552367 118.34303284 63.46028519 C117.96916397 65.08288592 117.59598237 66.70564516 117.22349548 68.32856369 C116.70426758 70.58861503 116.18171518 72.84787136 115.65820312 75.10693359 C115.36143677 76.39296478 115.06467041 77.67899597 114.75891113 79.0039978 C114 82 114 82 113 84 C115.97 84 118.94 84 122 84 C119.29896757 97.0548314 116.44379857 110.06959051 113.48071289 123.06738281 C112.80060196 126.05221749 112.12381428 129.03779359 111.44726562 132.0234375 C111.01321535 133.93233591 110.57897791 135.84119177 110.14453125 137.75 C109.94350296 138.6373584 109.74247467 139.5247168 109.53535461 140.43896484 C109.25452278 141.66800537 109.25452278 141.66800537 108.96801758 142.921875 C108.80465408 143.63956055 108.64129059 144.35724609 108.47297668 145.09667969 C108.06140382 146.75290298 107.53967285 148.38098146 107 150 C91.49 150 75.98 150 60 150 C58.23489538 145.29305436 56.55257714 140.76245171 55.09887695 135.98291016 C54.58868767 134.31175644 54.58868767 134.31175644 54.06819153 132.60684204 C53.71182114 131.42947479 53.35545074 130.25210754 52.98828125 129.0390625 C52.61519333 127.81214691 52.24210541 126.58523132 51.85771179 125.32113647 C51.07359893 122.74146122 50.29137268 120.16122366 49.51049805 117.58056641 C48.50877787 114.27065028 47.50215699 110.96224781 46.49413776 107.65424538 C45.53118103 104.49166121 44.5724182 101.32780683 43.61328125 98.1640625 C43.25083817 96.97454987 42.88839508 95.78503723 42.51496887 94.55947876 C42.18429916 93.46428925 41.85362946 92.36909973 41.51293945 91.24072266 C41.21998489 90.27445953 40.92703033 89.30819641 40.62519836 88.31265259 C40 86 40 86 40 84 C39.34 84 38.68 84 38 84 C37.77795898 85.08514893 37.55591797 86.17029785 37.32714844 87.28833008 C34.53396096 100.8107281 31.41916747 114.24891971 28.25 127.6875 C25.65125 138.7321875 25.65125 138.7321875 23 150 C7.16 150 -8.68 150 -25 150 C-22.74967898 137.6232344 -22.74967898 137.6232344 -21.68725586 133.02539062 C-21.45038559 131.99482544 -21.21351532 130.96426025 -20.96946716 129.90246582 C-20.72044144 128.8312146 -20.47141571 127.75996338 -20.21484375 126.65625 C-19.95369278 125.52473511 -19.69254181 124.39322021 -19.42347717 123.22741699 C-18.87590606 120.85738349 -18.32709773 118.48763552 -17.77709961 116.11816406 C-16.9335857 112.48313173 -16.0944309 108.84711284 -15.25585938 105.2109375 C-14.72160883 102.90098275 -14.18711245 100.59108485 -13.65234375 98.28125 C-13.40129379 97.19380493 -13.15024384 96.10635986 -12.8915863 94.98596191 C-12.65786819 93.98061401 -12.42415009 92.97526611 -12.18334961 91.93945312 C-11.97842392 91.0555188 -11.77349823 90.17158447 -11.56236267 89.26086426 C-11 87 -11 87 -10 84 C-12.97 84 -15.94 84 -19 84 C-15.77966286 66.8648836 -11.78357692 49.92116421 -7.77191162 32.95874023 C-6.73497956 28.57042336 -5.70315398 24.18090306 -4.67042542 19.79159546 C-3.11742638 13.19349094 -1.55814014 6.5969018 0 0 Z " fill="#8D1DCA" transform="translate(96,172)"/>
<path d="M0 0 C9.29346051 -0.06990266 18.58682875 -0.12301375 27.88049603 -0.15543652 C32.1972001 -0.1710078 36.51372263 -0.19208737 40.83032227 -0.22631836 C45.00600245 -0.25921981 49.18150941 -0.27691698 53.35730934 -0.28463173 C54.94030288 -0.29012058 56.52328831 -0.30083669 58.10620689 -0.31719017 C74.63142009 -0.48092765 90.57272547 1.59340041 103.0625 13.4375 C110.22702684 21.14616812 111.31885618 29.2686898 111.21484375 39.53125 C110.3065625 54.19586362 103.4673114 70.69426244 93.0625 81.1875 C92.381875 81.785625 91.70125 82.38375 91 83 C93.31 83.33 95.62 83.66 98 84 C87.84905496 97.2150266 71.01809849 101.86485297 55.13671875 103.96875 C48.76728828 104.74398242 42.38896219 105.40833391 36 106 C35.81540977 106.80473 35.81540977 106.80473 35.62709045 107.62571716 C34.34991359 113.19037246 33.06768695 118.75384649 31.7824707 124.31665039 C31.30297277 126.39512515 30.82477984 128.47390141 30.34790039 130.55297852 C29.66371969 133.53481277 28.97491109 136.51554466 28.28515625 139.49609375 C28.07157974 140.43150497 27.85800323 141.3669162 27.63795471 142.33067322 C27.33775673 143.62189842 27.33775673 143.62189842 27.03149414 144.93920898 C26.85606583 145.70087875 26.68063751 146.46254852 26.49989319 147.24729919 C26 149 26 149 25 150 C23.43452952 150.09326716 21.86487228 150.11745582 20.29663086 150.11352539 C19.29566879 150.11344986 18.29470673 150.11337433 17.26341248 150.11329651 C16.1748848 150.10813522 15.08635712 150.10297394 13.96484375 150.09765625 C12.85645645 150.0962413 11.74806915 150.09482635 10.60609436 150.09336853 C7.04986931 150.08775033 3.49370617 150.07519475 -0.0625 150.0625 C-2.46679597 150.05748734 -4.87109292 150.05292403 -7.27539062 150.04882812 C-13.18361504 150.03777499 -19.0918031 150.02101917 -25 150 C-23.64946674 142.15616594 -22.016808 134.40788446 -20.21484375 126.65625 C-19.95369278 125.52473511 -19.69254181 124.39322021 -19.42347717 123.22741699 C-18.87590606 120.85738349 -18.32709773 118.48763552 -17.77709961 116.11816406 C-16.9335857 112.48313173 -16.0944309 108.84711284 -15.25585938 105.2109375 C-14.72160883 102.90098275 -14.18711245 100.59108485 -13.65234375 98.28125 C-13.40129379 97.19380493 -13.15024384 96.10635986 -12.8915863 94.98596191 C-12.65786819 93.98061401 -12.42415009 92.97526611 -12.18334961 91.93945312 C-11.97842392 91.0555188 -11.77349823 90.17158447 -11.56236267 89.26086426 C-11 87 -11 87 -10 84 C-12.97 84 -15.94 84 -19 84 C-18.40545137 78.7088697 -17.5552665 73.63132486 -16.34179688 68.43823242 C-16.17744644 67.72987244 -16.01309601 67.02151245 -15.84376526 66.29168701 C-15.30604422 63.97867286 -14.76251211 61.66706948 -14.21875 59.35546875 C-13.84111343 57.73748551 -13.46379927 56.11942699 -13.08679199 54.501297 C-12.29912935 51.12437951 -11.50879716 47.74810261 -10.71630859 44.37231445 C-9.70035155 40.044413 -8.6892495 35.71539623 -7.67989349 31.38595104 C-6.90220196 28.05114193 -6.12291028 24.71670858 -5.34303284 21.38241005 C-4.96957427 19.78566218 -4.59639355 18.1888493 -4.22349548 16.59197044 C-3.70321772 14.36589367 -3.18101597 12.14027749 -2.65820312 9.91479492 C-2.36143677 8.64874924 -2.06467041 7.38270355 -1.75891113 6.07829285 C-1 3 -1 3 0 0 Z M42 37 C40.99282887 41.24833355 39.99550625 45.49891924 39 49.75 C38.71382813 50.9565625 38.42765625 52.163125 38.1328125 53.40625 C37.86210937 54.56640625 37.59140625 55.7265625 37.3125 56.921875 C37.06113281 57.99018555 36.80976563 59.05849609 36.55078125 60.15917969 C35.87310887 63.17219245 35.87310887 63.17219245 36 67 C43.60875722 66.34407265 49.38370941 64.46849347 55 59 C57.70807059 55.07501161 59 52.06089028 59 47.25 C57.85087881 43.51535614 57.19263036 42.23484125 54 40 C50.0162349 38.32869168 46.34278708 37 42 37 Z " fill="#8D1DCA" transform="translate(380,172)"/>
<path d="M0 0 C0.96511725 0.00092179 1.93023451 0.00184359 2.92459774 0.00279331 C4.02822659 0.00141865 5.13185543 0.00004398 6.26892757 -0.00137234 C7.49027905 0.00222294 8.71163052 0.00581821 9.96999264 0.00952244 C11.88678829 0.0093034 11.88678829 0.0093034 13.84230709 0.00907993 C17.35661253 0.00879197 20.87088412 0.01468843 24.38518167 0.02165389 C28.05407018 0.02788771 31.72295939 0.02849125 35.39185238 0.0296793 C42.34398097 0.03279253 49.29609392 0.04100581 56.24821562 0.05102879 C64.16102442 0.06219017 72.07383396 0.06770044 79.98664868 0.07272422 C96.26813383 0.08318843 112.54960323 0.10078772 128.83107662 0.12304783 C127.7148146 5.37513081 126.59371191 10.62614753 125.46803951 15.87622166 C125.08550892 17.66369462 124.70432068 19.45145538 124.32448483 21.23950291 C123.77940072 23.80431196 123.22955315 26.36805917 122.67873287 28.93164158 C122.42398945 30.1378944 122.42398945 30.1378944 122.16409969 31.36851597 C120.94494833 37.00917612 120.94494833 37.00917612 119.83107662 38.12304783 C116.87402342 38.21173082 113.94042606 38.23825079 110.98342037 38.22070408 C109.6537801 38.21858166 109.6537801 38.21858166 108.2972784 38.21641636 C105.45434408 38.21079998 102.61148731 38.19824474 99.76857662 38.18554783 C97.84605171 38.18053494 95.92352558 38.17597167 94.0009985 38.17187595 C89.27766113 38.16082523 84.55438204 38.14354966 79.83107662 38.12304783 C79.72190411 38.67784321 79.61273159 39.23263859 79.50025082 39.80424595 C76.78068694 53.61570468 73.86173946 67.37655983 70.83107662 81.12304783 C73.47107662 81.45304783 76.11107662 81.78304783 78.83107662 82.12304783 C77.4847508 90.82725862 75.74211597 99.39498012 73.79201412 107.98242283 C73.50629543 109.25281406 73.22057674 110.5232053 72.92619991 111.83209324 C72.17621001 115.16660135 71.42227708 118.50020512 70.66744137 121.83361912 C69.89402216 125.25246147 69.12440684 128.67215993 68.35451412 132.09179783 C66.85074947 138.76980644 65.34077208 145.44636651 63.83107662 152.12304783 C46.67107662 152.12304783 29.51107662 152.12304783 11.83107662 152.12304783 C13.47082908 144.75702716 15.11109729 137.39115229 16.75613308 130.02631474 C17.52228968 126.59556008 18.28755485 123.16461251 19.05055904 119.73315525 C19.92893417 115.78304372 20.81155749 111.83389149 21.69435787 107.88476658 C21.96323315 106.67286152 22.23210842 105.46095646 22.50913143 104.212327 C24.09736465 97.12526339 25.84681492 90.1098606 27.83107662 83.12304783 C24.86107662 83.12304783 21.89107662 83.12304783 18.83107662 83.12304783 C20.26750417 73.20953949 22.55208703 63.58404087 24.95607662 53.87304783 C26.87420162 46.07679783 26.87420162 46.07679783 28.83107662 38.12304783 C15.63107662 38.12304783 2.43107662 38.12304783 -11.16892338 38.12304783 C-9.22546074 28.1975065 -7.27755288 18.28602891 -4.98142338 8.43554783 C-4.81481205 7.7118198 -4.64820072 6.98809177 -4.47654057 6.24243259 C-3.03750308 0.17232428 -3.03750308 0.17232428 0 0 Z " fill="#8E1ECA" transform="translate(246.16892337799072,170.87695217132568)"/>
<path d="M0 0 C1.4540625 0.0309375 1.4540625 0.0309375 2.9375 0.0625 C3.60849984 2.66561992 4.27445338 5.26985398 4.9375 7.875 C5.12828125 8.61298828 5.3190625 9.35097656 5.515625 10.11132812 C6.29012914 13.16785341 6.9375 15.89623478 6.9375 19.0625 C7.5975 19.0625 8.2575 19.0625 8.9375 19.0625 C9.040625 17.969375 9.14375 16.87625 9.25 15.75 C9.9064566 10.37284816 11.421092 5.25071352 12.9375 0.0625 C14.9175 0.0625 16.8975 0.0625 18.9375 0.0625 C19.51411872 4.04362284 20.08375747 8.0256779 20.64648438 12.00878906 C20.83904789 13.36771884 21.03303663 14.72644749 21.22851562 16.08496094 C21.51132313 18.05595607 21.78696752 20.02797471 22.0625 22 C22.23007812 23.18464844 22.39765625 24.36929687 22.5703125 25.58984375 C22.94232702 29.10815125 23.00070745 32.52739751 22.9375 36.0625 C21.2875 36.0625 19.6375 36.0625 17.9375 36.0625 C16.17134882 31.35276351 15.45155169 27.03166636 14.9375 22.0625 C13.6175 26.3525 12.2975 30.6425 10.9375 35.0625 C8.4625 35.5575 8.4625 35.5575 5.9375 36.0625 C5.256875 34.268125 5.256875 34.268125 4.5625 32.4375 C4.30726563 31.76460938 4.05203125 31.09171875 3.7890625 30.3984375 C2.78257961 27.63753489 1.85713377 24.85338856 0.9375 22.0625 C0.80472656 22.98933594 0.67195313 23.91617187 0.53515625 24.87109375 C0.35855469 26.06863281 0.18195313 27.26617187 0 28.5 C-0.17402344 29.69496094 -0.34804688 30.88992188 -0.52734375 32.12109375 C-1.0625 35.0625 -1.0625 35.0625 -2.0625 36.0625 C-3.72867115 36.10313832 -5.39638095 36.105221 -7.0625 36.0625 C-7.24929533 28.46074224 -6.52607038 21.10634507 -5.625 13.5625 C-5.49029297 12.37140625 -5.35558594 11.1803125 -5.21679688 9.953125 C-4.06188991 0.08289571 -4.06188991 0.08289571 0 0 Z " fill="#9227CC" transform="translate(330.0625,352.9375)"/>
<path d="M0 0 C1.98 0 3.96 0 6 0 C8.31 5.28 10.62 10.56 13 16 C13.33 10.72 13.66 5.44 14 0 C15.98 0 17.96 0 20 0 C20 11.88 20 23.76 20 36 C18.35 36 16.7 36 15 36 C13.85214624 33.56343315 12.70664598 31.12580719 11.5625 28.6875 C11.23701172 27.99720703 10.91152344 27.30691406 10.57617188 26.59570312 C9.24512515 23.75522197 7.99292066 20.97876197 7 18 C6.67 23.94 6.34 29.88 6 36 C4.02 36 2.04 36 0 36 C0 24.12 0 12.24 0 0 Z " fill="#9124CC" transform="translate(71,353)"/>
<path d="M0 0 C2.08218362 -0.10832169 4.16599129 -0.18573541 6.25 -0.25 C7.99023438 -0.31960938 7.99023438 -0.31960938 9.765625 -0.390625 C13 0 13 0 15.359375 1.828125 C18.3106929 5.73510774 18.41157717 9.22570479 18 14 C16.68133728 15.678298 15.34919532 17.34614767 14 19 C14 23.1240641 16.19651758 26.50619708 18.16015625 30.03515625 C19 32 19 32 19 36 C17.02 36 15.04 36 13 36 C11.02 32.04 9.04 28.08 7 24 C6.67 27.63 6.34 31.26 6 35 C3.525 35.495 3.525 35.495 1 36 C0 35 0 35 -0.11352539 31.67358398 C-0.11336629 30.19774444 -0.10767314 28.72189931 -0.09765625 27.24609375 C-0.09553383 26.08292381 -0.09553383 26.08292381 -0.09336853 24.89625549 C-0.08775345 22.40996506 -0.07519846 19.9237634 -0.0625 17.4375 C-0.05748694 15.75586067 -0.0529237 14.07421994 -0.04882812 12.39257812 C-0.03777913 8.26168434 -0.02050445 4.13085724 0 0 Z M6 6 C6 9.3 6 12.6 6 16 C7.65 15.67 9.3 15.34 11 15 C11.68493373 12.14221967 11.68493373 12.14221967 12 9 C11.34 8.01 10.68 7.02 10 6 C8.68 6 7.36 6 6 6 Z " fill="#9125CC" transform="translate(449,353)"/>
<path d="M0 0 C1.98 0 3.96 0 6 0 C6.33 8.91 6.66 17.82 7 27 C8.65 27.33 10.3 27.66 12 28 C12.94466756 24.75921875 13.19098828 21.72774345 13.31640625 18.359375 C13.35830078 17.28945313 13.40019531 16.21953125 13.44335938 15.1171875 C13.48267578 14.00601562 13.52199219 12.89484375 13.5625 11.75 C13.60568359 10.62335938 13.64886719 9.49671875 13.69335938 8.3359375 C13.79932015 5.55741046 13.90139142 2.77879609 14 0 C15.98 0 17.96 0 20 0 C20.08735463 4.54154478 20.14051247 9.08287232 20.1875 13.625 C20.21263672 14.91019531 20.23777344 16.19539063 20.26367188 17.51953125 C20.27333984 18.76347656 20.28300781 20.00742187 20.29296875 21.2890625 C20.3086792 22.43068848 20.32438965 23.57231445 20.34057617 24.74853516 C19.95342325 28.44466602 18.90397271 30.82826081 17 34 C13.44101596 36.57442903 10.3106586 36.19063484 6.125 35.60546875 C4 35 4 35 1.5 32.75 C-0.89958629 28.35075847 -1.12707184 24.24860518 -1.1328125 19.296875 C-1.13410156 18.2346875 -1.13539063 17.1725 -1.13671875 16.078125 C-1.13285156 14.97984375 -1.12898438 13.8815625 -1.125 12.75 C-1.13080078 11.079375 -1.13080078 11.079375 -1.13671875 9.375 C-1.13542969 8.31796875 -1.13414062 7.2609375 -1.1328125 6.171875 C-1.13168457 5.2034668 -1.13055664 4.23505859 -1.12939453 3.23730469 C-1 1 -1 1 0 0 Z " fill="#9329CD" transform="translate(381,353)"/>
<path d="M0 0 C4.30974001 2.03289623 6.88019425 4.24651979 8.53125 8.81640625 C10.18560295 16.52293374 9.61765538 24.01418271 6 31 C3.25667847 33.97193165 1.466116 34.87287746 -2.4375 35.9375 C-6.62724004 36.01100421 -8.52975384 35.31349744 -12 33 C-16.66027207 27.96186803 -17.22197274 23.84427133 -17.3125 17.1875 C-17.35600586 16.13852539 -17.35600586 16.13852539 -17.40039062 15.06835938 C-17.46298679 9.92102836 -16.34181473 7.10495474 -13 3 C-9.04634592 -0.29471174 -5.00042515 -0.86281846 0 0 Z M-8.8125 6.75 C-12.22136491 11.81459929 -12.70592303 17.21490795 -11.58984375 23.19921875 C-10.40741524 26.57657443 -9.21272774 27.88684695 -6.0625 29.5625 C-3.11754799 30.17971623 -3.11754799 30.17971623 -0.75 29.4375 C2.17819487 27.03219707 2.88760783 24.0027717 3.30078125 20.31640625 C3.40080244 12.67210247 3.40080244 12.67210247 0 6 C-3.87640608 4.39887575 -5.24523961 4.53037131 -8.8125 6.75 Z " fill="#9328CC" transform="translate(309,353)"/>
<path d="M0 0 C4.30974001 2.03289623 6.88019425 4.24651979 8.53125 8.81640625 C10.18560295 16.52293374 9.61765538 24.01418271 6 31 C3.25667847 33.97193165 1.466116 34.87287746 -2.4375 35.9375 C-6.62724004 36.01100421 -8.52975384 35.31349744 -12 33 C-16.66027207 27.96186803 -17.22197274 23.84427133 -17.3125 17.1875 C-17.35600586 16.13852539 -17.35600586 16.13852539 -17.40039062 15.06835938 C-17.46298679 9.92102836 -16.34181473 7.10495474 -13 3 C-9.04634592 -0.29471174 -5.00042515 -0.86281846 0 0 Z M-8.8125 6.75 C-12.22136491 11.81459929 -12.70592303 17.21490795 -11.58984375 23.19921875 C-10.40741524 26.57657443 -9.21272774 27.88684695 -6.0625 29.5625 C-3.11754799 30.17971623 -3.11754799 30.17971623 -0.75 29.4375 C2.17819487 27.03219707 2.88760783 24.0027717 3.30078125 20.31640625 C3.40080244 12.67210247 3.40080244 12.67210247 0 6 C-3.87640608 4.39887575 -5.24523961 4.53037131 -8.8125 6.75 Z " fill="#9328CC" transform="translate(220,353)"/>
<path d="M0 0 C2.31 0 4.62 0 7 0 C8.32 2.64 9.64 5.28 11 8 C12.32 5.36 13.64 2.72 15 0 C17.31 0 19.62 0 22 0 C20.62495136 4.46890809 18.83385735 8.50781182 16.70703125 12.65625 C15.03214516 18.2083586 17.79959622 23.34515818 20.0625 28.375 C20.34416016 29.01566406 20.62582031 29.65632813 20.91601562 30.31640625 C21.60459421 31.88029659 22.30144711 33.44053941 23 35 C22 36 22 36 19.625 36.375 C17 36 17 36 15.3125 33.875 C13.98203288 30.96064345 12.92675446 28.06541861 12 25 C11.34 25 10.68 25 10 25 C9.8453125 26.051875 9.8453125 26.051875 9.6875 27.125 C8.90640997 30.39137647 7.57941257 33.0471852 6 36 C4.02 36 2.04 36 0 36 C0.78705825 30.51103533 3.37428753 26.11733287 5.91796875 21.25390625 C7.25779767 17.22474564 6.71260626 15.8196612 5 12 C4.57460937 10.94039063 4.14921875 9.88078125 3.7109375 8.7890625 C3.27007812 7.74492187 2.82921875 6.70078125 2.375 5.625 C1.92898437 4.56539063 1.48296875 3.50578125 1.0234375 2.4140625 C0.68570313 1.61742187 0.34796875 0.82078125 0 0 Z " fill="#9328CC" transform="translate(117,353)"/>
<path d="M0 0 C0.042721 1.66611905 0.04063832 3.33382885 0 5 C-1 6 -1 6 -2.84765625 6.09765625 C-4.8984375 6.06510417 -6.94921875 6.03255208 -9 6 C-9 8.31 -9 10.62 -9 13 C-6.36 13 -3.72 13 -1 13 C-1 14.98 -1 16.96 -1 19 C-3.64 19 -6.28 19 -9 19 C-9 21.97 -9 24.94 -9 28 C-7.88625 27.95875 -6.7725 27.9175 -5.625 27.875 C-2 28 -2 28 0 30 C-0.375 32.625 -0.375 32.625 -1 35 C-3.31243792 35.02685412 -5.6249627 35.04632841 -7.9375 35.0625 C-9.22527344 35.07410156 -10.51304688 35.08570313 -11.83984375 35.09765625 C-15 35 -15 35 -16 34 C-16.08847743 31.47905924 -16.11527301 28.98569107 -16.09765625 26.46484375 C-16.0962413 25.71159317 -16.09482635 24.95834259 -16.09336853 24.18226624 C-16.08775376 21.7673044 -16.07519883 19.35243399 -16.0625 16.9375 C-16.0574869 15.30403779 -16.05292366 13.67057414 -16.04882812 12.03710938 C-16.03777954 8.02470415 -16.02050506 4.01236759 -16 0 C-14.08416353 -0.1958009 -12.16727461 -0.38132214 -10.25 -0.5625 C-8.64898437 -0.71912109 -8.64898437 -0.71912109 -7.015625 -0.87890625 C-4.35858796 -0.98560074 -2.50039428 -0.81930395 0 0 Z " fill="#942BCD" transform="translate(112,353)"/>
<path d="M0 0 C1.93330493 -0.05240378 3.86701726 -0.08993412 5.80078125 -0.12109375 C6.87755127 -0.14357178 7.95432129 -0.1660498 9.0637207 -0.18920898 C12 0 12 0 15.1875 1.9375 C18.20550919 7.03689483 18.44244503 11.61079685 17.375 17.375 C15.68173221 20.60760215 14.34924938 21.59798863 11 23 C9.35 23 7.7 23 6 23 C6 26.96 6 30.92 6 35 C3.525 35.495 3.525 35.495 1 36 C0 35 0 35 -0.11352539 31.67358398 C-0.11336629 30.19774444 -0.10767314 28.72189931 -0.09765625 27.24609375 C-0.09553383 26.08292381 -0.09553383 26.08292381 -0.09336853 24.89625549 C-0.08775345 22.40996506 -0.07519846 19.9237634 -0.0625 17.4375 C-0.05748694 15.75586067 -0.0529237 14.07421994 -0.04882812 12.39257812 C-0.03777913 8.26168434 -0.02050445 4.13085724 0 0 Z M6 5 C6 9.29 6 13.58 6 18 C7.32 17.67 8.64 17.34 10 17 C11.65092876 13.69814249 12.18099844 11.81449297 11.375 8.1875 C10.05206824 5.52264672 10.05206824 5.52264672 6 5 Z " fill="#952CCD" transform="translate(358,353)"/>
<path d="M0 0 C0 1.98 0 3.96 0 6 C-2.97 6 -5.94 6 -9 6 C-9 8.31 -9 10.62 -9 13 C-6.03 13 -3.06 13 0 13 C0 14.98 0 16.96 0 19 C-2.97 19 -5.94 19 -9 19 C-9 21.97 -9 24.94 -9 28 C-7.700625 27.979375 -6.40125 27.95875 -5.0625 27.9375 C-3.70834367 27.91600546 -2.35243917 27.92851801 -1 28 C0 29 0 29 0 35 C-4.95 35 -9.9 35 -15 35 C-15 23.45 -15 11.9 -15 0 C-4 -1 -4 -1 0 0 Z " fill="#9022CB" transform="translate(444,353)"/>
<path d="M0 0 C11 0 11 0 14.125 1.8125 C17.46530434 5.70952172 17.34847845 9.63452378 17.26953125 14.55078125 C17 17 17 17 15.5 20.0625 C11.98576469 22.78603236 9.4064182 22.77967909 5 23 C5 27.29 5 31.58 5 36 C3.35 36 1.7 36 0 36 C0 24.12 0 12.24 0 0 Z M6 5 C4.68737429 6.08552366 4.68737429 6.08552366 4.90234375 8.72265625 C4.91394531 9.82480469 4.92554688 10.92695313 4.9375 12.0625 C4.94652344 13.16722656 4.95554688 14.27195312 4.96484375 15.41015625 C4.97644531 16.26480469 4.98804688 17.11945313 5 18 C7.47266765 17.65555119 7.47266765 17.65555119 10 17 C11.55938978 13.88122044 11.3607834 11.42744229 11 8 C8.6273026 5.99135641 8.6273026 5.99135641 6 5 Z " fill="#9022CB" transform="translate(234,353)"/>
<path d="M0 0 C-0.66 1.65 -1.32 3.3 -2 5 C-3.98 5 -5.96 5 -8 5 C-8.67350769 7.70012347 -8.67350769 7.70012347 -8 11 C-6.11902952 12.99692072 -4.12455802 14.62533742 -1.9453125 16.2890625 C1.22291857 19.07557898 1.92100072 21.27583997 2.375 25.4375 C1.9372103 29.59650212 0.96742121 31.11736226 -2 34 C-6.25800538 35.41933513 -10.22911538 35.72651677 -14.4375 34 C-14.953125 33.67 -15.46875 33.34 -16 33 C-15.01 30.03 -15.01 30.03 -14 27 C-13.34 27.33 -12.68 27.66 -12 28 C-10.00039988 28.039992 -7.99952758 28.04346799 -6 28 C-5.1969738 26.21064758 -5.1969738 26.21064758 -5 24 C-6.30661452 21.90340781 -6.30661452 21.90340781 -8.25 20 C-14.87392029 12.99287771 -14.87392029 12.99287771 -15.5 8.0625 C-15.37669632 4.58403837 -14.99095988 3.98851661 -12.6875 1.0625 C-7.88853714 -2.62042499 -5.5412499 -1.77738204 0 0 Z " fill="#942BCD" transform="translate(489,354)"/>
<path d="M0 0 C0 1.98 0 3.96 0 6 C-0.69867188 6.09796875 -1.39734375 6.1959375 -2.1171875 6.296875 C-3.02726562 6.44640625 -3.93734375 6.5959375 -4.875 6.75 C-5.77992188 6.88921875 -6.68484375 7.0284375 -7.6171875 7.171875 C-10.09087062 7.78157753 -10.09087062 7.78157753 -11.296875 9.7421875 C-12.81687537 14.62307756 -12.90213313 20.16395273 -11.34765625 25.05078125 C-10.39178476 26.96208167 -10.39178476 26.96208167 -8 29 C-4.37400578 29.41725678 -4.37400578 29.41725678 -1 29 C0 30 0 30 0.0625 32.5625 C0.041875 33.366875 0.02125 34.17125 0 35 C-4.37416368 36.5521226 -7.69872874 35.61044237 -11.91015625 34.08984375 C-16.0843162 31.91303884 -17.57388428 28.27834717 -19 24 C-19.66261279 16.66780934 -19.70536207 9.98995478 -15 4 C-9.82805273 -0.20220715 -6.43657362 -1.60914341 0 0 Z " fill="#942ACD" transform="translate(287,353)"/>
<path d="M0 0 C5.94 0 11.88 0 18 0 C18 1.65 18 3.3 18 5 C17 6 17 6 14.4375 6.0625 C13.2309375 6.0315625 13.2309375 6.0315625 12 6 C12.00523682 6.87325928 12.01047363 7.74651855 12.01586914 8.64624023 C12.03287751 11.87589273 12.04543369 15.10552245 12.05493164 18.33520508 C12.0599708 19.73495228 12.06680216 21.1346942 12.07543945 22.53442383 C12.0875232 24.54245777 12.09269807 26.55052957 12.09765625 28.55859375 C12.10289307 29.76829834 12.10812988 30.97800293 12.11352539 32.22436523 C12 35 12 35 11 36 C9.35 36 7.7 36 6 36 C6 26.1 6 16.2 6 6 C4.02 6 2.04 6 0 6 C0 4.02 0 2.04 0 0 Z " fill="#952DCE" transform="translate(180,353)"/>
<path d="M0 0 C5.94 0 11.88 0 18 0 C18 1.65 18 3.3 18 5 C17 6 17 6 14.4375 6.0625 C13.2309375 6.0315625 13.2309375 6.0315625 12 6 C12.00523682 6.87325928 12.01047363 7.74651855 12.01586914 8.64624023 C12.03287751 11.87589273 12.04543369 15.10552245 12.05493164 18.33520508 C12.0599708 19.73495228 12.06680216 21.1346942 12.07543945 22.53442383 C12.0875232 24.54245777 12.09269807 26.55052957 12.09765625 28.55859375 C12.10289307 29.76829834 12.10812988 30.97800293 12.11352539 32.22436523 C12 35 12 35 11 36 C9.35 36 7.7 36 6 36 C6 26.1 6 16.2 6 6 C4.35 6 2.7 6 1 6 C0.67 5.67 0.34 5.34 0 5 C0 3.35 0 1.7 0 0 Z " fill="#9329CD" transform="translate(406,353)"/>
<path d="M0 0 C5.94 0 11.88 0 18 0 C18 1.65 18 3.3 18 5 C17 6 17 6 14.4375 6.0625 C13.2309375 6.0315625 13.2309375 6.0315625 12 6 C12.00523682 6.87325928 12.01047363 7.74651855 12.01586914 8.64624023 C12.03287751 11.87589273 12.04543369 15.10552245 12.05493164 18.33520508 C12.0599708 19.73495228 12.06680216 21.1346942 12.07543945 22.53442383 C12.0875232 24.54245777 12.09269807 26.55052957 12.09765625 28.55859375 C12.10289307 29.76829834 12.10812988 30.97800293 12.11352539 32.22436523 C12 35 12 35 11 36 C9.35 36 7.7 36 6 36 C6 26.1 6 16.2 6 6 C4.35 6 2.7 6 1 6 C0.67 5.67 0.34 5.34 0 5 C0 3.35 0 1.7 0 0 Z " fill="#942ACD" transform="translate(145,353)"/>
</svg>
